<?xml version="1.0" encoding="UTF-8"?>
<svg id="Layer_2" data-name="Layer 2" xmlns="http://www.w3.org/2000/svg" viewBox="0 0 253.09 250.22">
  <defs>
    <style>
      .cls-1 {
        fill: red;
        font-family: MinionVariableConcept-Roman, 'Minion Variable Concept';
        font-size: 170px;
        font-variation-settings: 'wght' 400, 'opsz' 11;
      }

      .cls-2 {
        fill: #fff;
      }
    </style>
  </defs>
  <g id="Layer_1-2" data-name="Layer 1">
    <g>
      <path class="cls-2" d="M171.29,248.72c-3.08,0-6.13-.5-9.08-1.5L20.75,199.35c-14.79-5-22.75-21.11-17.74-35.89L51.29,20.75c3.9-11.51,14.67-19.25,26.82-19.25,3.08,0,6.13.51,9.08,1.5l141.47,47.87c14.79,5,22.75,21.11,17.74,35.89l-48.29,142.71c-3.9,11.51-14.67,19.25-26.82,19.25Z"/>
      <path d="M78.11,0v3c2.91,0,5.81.48,8.6,1.42l141.47,47.87c6.78,2.3,12.27,7.1,15.44,13.52s3.66,13.69,1.36,20.48l-48.29,142.71c-3.69,10.9-13.89,18.23-25.39,18.23-2.91,0-5.81-.48-8.6-1.42L21.23,197.93c-14-4.74-21.54-19.99-16.8-33.99L52.71,21.23c3.69-10.9,13.89-18.23,25.39-18.23V0M78.11,0c-12.43,0-24.03,7.84-28.24,20.27L1.58,162.98c-5.28,15.6,3.09,32.52,18.68,37.79l141.47,47.87c3.17,1.07,6.39,1.58,9.56,1.58,12.43,0,24.03-7.84,28.24-20.27l48.29-142.71c5.28-15.6-3.09-32.52-18.68-37.79L87.66,1.58C84.5.51,81.27,0,78.11,0h0Z"/>
    </g>
    <text class="cls-1" transform="translate(86.96 154.05) rotate(16.83)"><tspan x="0" y="0">J</tspan></text>
  </g>
</svg>